<?xml version="1.0" encoding="UTF-8" standalone="no"?>
<!DOCTYPE svg PUBLIC "-//W3C//DTD SVG 1.1//EN" "http://www.w3.org/Graphics/SVG/1.1/DTD/svg11.dtd">
<svg version="1.1" xmlns="http://www.w3.org/2000/svg" xmlns:xlink="http://www.w3.org/1999/xlink" preserveAspectRatio="xMidYMid meet" viewBox="0 0 640 640" width="640" height="640"><defs><path d="M191.55 20.01C216.26 163.97 292.6 187.03 295.56 218.77C256.61 182.56 226.57 232.08 256.43 287.77C286.35 343.57 347.12 313.98 310.75 238.85C350.25 244.6 378.55 297.9 374.34 335.66C368.33 319.06 343.31 322.47 344.74 347.5C346.16 372.53 376.35 370.63 389.53 368.61C402.72 366.59 414.98 356.46 429.83 335.67C447.63 310.76 460.84 252.18 419.14 192.77C521.42 269.88 471.39 383.04 464.45 409.8C458.58 409.79 429.23 409.7 376.4 409.55L366.1 426.8L457.76 426.54L451.32 440.7L359.93 440.7L349.63 456.92C405.08 457.07 435.89 457.16 442.05 457.18C410.67 517.32 346.92 570.75 286.81 600.07C317.81 567.87 328.25 508.39 292.73 497.6C257.21 486.8 186.05 562.39 195.15 669.58C149.75 620.27 136.63 500.62 193.35 429.37C210.39 446.54 240.77 456.46 256.69 438.12C272.6 419.79 267.9 383.12 257.2 360.89C246.5 338.66 220.57 316.28 191.81 319.69C191.81 319.69 191.57 49.98 191.55 20.01Z" id="b2m2Z1jCLK"></path><path d="M221.17 413.68C205.1 413.69 192.07 401.13 192.06 385.63C192.06 385.62 192.06 385.61 192.06 385.6C192.05 370.11 205.07 357.53 221.14 357.53C237.21 357.52 250.24 370.08 250.25 385.57C250.25 385.58 250.25 385.59 250.25 385.6C250.26 401.1 237.24 413.67 221.17 413.68Z" id="a5GyFRnuXQ"></path></defs><g><g><g><use xlink:href="#b2m2Z1jCLK" opacity="1" fill="#043df5" fill-opacity="1"></use><g><use xlink:href="#b2m2Z1jCLK" opacity="1" fill-opacity="0" stroke="#000000" stroke-width="1" stroke-opacity="1"></use></g></g><g><use xlink:href="#a5GyFRnuXQ" opacity="1" fill="#043df5" fill-opacity="1"></use><g><use xlink:href="#a5GyFRnuXQ" opacity="1" fill-opacity="0" stroke="#000000" stroke-width="1" stroke-opacity="1"></use></g></g></g></g></svg>