<?xml version="1.0" encoding="UTF-8" standalone="no"?>
<!DOCTYPE svg PUBLIC "-//W3C//DTD SVG 1.1//EN" "http://www.w3.org/Graphics/SVG/1.1/DTD/svg11.dtd">
<svg version="1.1" xmlns="http://www.w3.org/2000/svg" xmlns:xlink="http://www.w3.org/1999/xlink" preserveAspectRatio="xMidYMid meet" viewBox="0 0 640 640" width="640" height="640"><defs><path d="M287.52 126.11L255.28 126.14L299.68 39.47L344.04 125.93L311.57 126.16L299.88 102.38L287.52 126.11Z" id="dhWO2LWkK"></path><path d="M362.38 166.34C369.49 171.79 373.12 176.67 377.72 181.81C382.32 186.96 385.93 192.75 387.5 196.59C389.07 200.44 390.64 208.03 385.56 208C380.48 207.97 374.59 190.36 356.72 193.69C362.94 196.85 370.42 204.34 370.06 212.84C367.34 209.33 361.76 207.28 355.56 208.97C363.19 213.55 365.66 233.16 354.53 235.84C343.17 238.58 336.08 230.59 330.72 222.34C325.36 214.1 330.02 193.66 317 186.25C303.98 178.84 278.37 181.27 270.28 194.78C256.56 195.09 244.86 207.68 254.94 225.03C260.18 208.4 272.83 217.2 272.09 225.12C271.36 233.05 262.12 240.81 247.75 236.87C233.38 232.94 237.62 213.58 245.25 209C239.05 207.31 233.44 209.36 230.72 212.87C230.36 204.37 237.87 196.88 244.09 193.72C226.22 190.39 220.33 208.01 215.25 208.03C210.17 208.06 211.74 200.47 213.31 196.62C214.88 192.78 218.49 186.99 223.09 181.84C227.69 176.7 231.32 171.82 238.44 166.37C246.13 160.49 255.26 156.35 260.16 153.84C250 153.84 199.22 153.84 107.81 153.84C93.77 187.41 85.97 206.05 84.41 209.78C113.62 188.57 146.96 189.73 148.28 218.28C149.6 246.83 128.75 250.54 108.41 250.03C108.43 257.52 108.58 317.45 108.59 324.94C119.27 303.11 130.81 286.95 143.25 279.19C155.49 271.55 165.7 269.26 174.22 273.84C182.74 278.42 187.25 300.26 158.53 331.16C162.09 334.16 190.59 358.16 194.16 361.16C199.93 337.31 208.56 325.04 217.66 318.59C224.74 313.58 230.23 311.89 235.75 314.87C241.27 317.86 241.95 327.29 238.41 336.19C234.67 345.58 223.56 362.31 223.56 362.31C229.39 362.31 229.74 374.97 210.97 376.62C192.2 378.28 181.27 380.45 175.75 393.28C170.26 406.04 171.39 420.32 185.63 428.12C183.3 412.57 193.71 398.77 203.25 398.12C212.79 397.48 215.11 402.93 216.34 407.34C217.53 411.6 215.05 417.05 210.41 420.37C226.27 422.95 228.63 413.44 228.59 404.69C228.56 395.94 233.69 400.36 232.66 404.31C236.51 400.49 241.84 395.55 247.75 390.19C240.74 405.69 184.69 529.72 177.69 545.22C221.64 513.72 249.86 525.86 273.69 530.72C275.46 526.74 284.3 506.87 300.22 471.09L300.59 471.06C316.49 506.84 325.33 526.71 327.09 530.69C350.92 525.83 379.17 513.69 423.13 545.19C416.12 529.68 360.04 405.66 353.03 390.16C358.94 395.52 364.3 400.46 368.16 404.28C367.12 400.33 372.25 395.91 372.22 404.66C372.18 413.4 374.54 422.92 390.41 420.34C385.76 417.02 383.28 411.56 384.47 407.31C385.7 402.89 388.02 397.45 397.56 398.09C407.1 398.74 417.52 412.54 415.19 428.09C429.42 420.29 430.55 406.01 425.06 393.25C419.55 380.42 408.58 378.25 389.81 376.59C371.04 374.94 371.42 362.28 377.25 362.28C377.25 362.28 366.15 345.55 362.41 336.16C358.86 327.26 359.51 317.83 365.03 314.84C370.55 311.86 376.08 313.55 383.16 318.56C392.25 325 400.89 337.28 406.66 361.13C410.22 358.13 438.72 334.13 442.28 331.13C413.56 300.23 418.07 278.39 426.59 273.81C435.11 269.23 445.29 271.52 457.53 279.16C469.97 286.92 481.55 303.08 492.22 324.91C492.24 317.42 492.39 257.49 492.41 250C472.06 250.51 451.21 246.8 452.53 218.25C453.85 189.7 487.19 188.53 516.41 209.75C514.85 206.02 507.04 187.38 493 153.81L340.66 153.81C350.01 158.24 357.25 162.42 362.38 166.34Z" id="b2ywNGtbNi"></path><path d="M133.15 364.4L157.87 378.82L89.04 512.51L151.2 512.51L138.59 540.38L41.04 541.16L133.15 364.4Z" id="c1875WT0xp"></path><path d="M465.06 364.12L440.33 378.54L509.17 512.23L447 512.23L459.61 540.1L557.17 540.88L465.06 364.12Z" id="fAYlxD9TZ"></path></defs><g><g><g><use xlink:href="#dhWO2LWkK" opacity="1" fill="#04d875" fill-opacity="1"></use><g><use xlink:href="#dhWO2LWkK" opacity="1" fill-opacity="0" stroke="#000000" stroke-width="1" stroke-opacity="1"></use></g></g><g><use xlink:href="#b2ywNGtbNi" opacity="1" fill="#04d875" fill-opacity="1"></use><g><use xlink:href="#b2ywNGtbNi" opacity="1" fill-opacity="0" stroke="#000000" stroke-width="1" stroke-opacity="1"></use></g></g><g><use xlink:href="#c1875WT0xp" opacity="1" fill="#04d875" fill-opacity="1"></use><g><use xlink:href="#c1875WT0xp" opacity="1" fill-opacity="0" stroke="#000000" stroke-width="1" stroke-opacity="1"></use></g></g><g><use xlink:href="#fAYlxD9TZ" opacity="1" fill="#04d875" fill-opacity="1"></use><g><use xlink:href="#fAYlxD9TZ" opacity="1" fill-opacity="0" stroke="#000000" stroke-width="1" stroke-opacity="1"></use></g></g></g></g></svg>