<?xml version="1.0" encoding="UTF-8" standalone="no"?>
<!DOCTYPE svg PUBLIC "-//W3C//DTD SVG 1.1//EN" "http://www.w3.org/Graphics/SVG/1.1/DTD/svg11.dtd">
<svg version="1.1" xmlns="http://www.w3.org/2000/svg" xmlns:xlink="http://www.w3.org/1999/xlink" preserveAspectRatio="xMidYMid meet" viewBox="0 0 640 640" width="640" height="640"><defs><path d="M461.3 78.33C476.73 101.51 479.02 123.92 479.02 123.92C479.02 123.92 452.39 118.51 440.64 128.35C428.89 138.18 427.58 163.35 440.02 174.73C452.46 186.1 478.71 184.06 487.97 173.93C497.22 163.79 505.74 153.25 512.51 126.73C519.28 100.21 513.05 76.38 503.1 53.07C508.36 54.14 515.06 58.92 524.26 70.37C533.45 81.82 549.3 109.27 556.1 127.47C562.9 145.67 566.91 162.62 566.3 183.68C565.68 204.74 563.37 206.98 563.37 206.98C563.37 206.98 548.21 199.36 538.63 200.12C528.65 200.9 513.58 203.91 509.26 222.28C504.95 240.65 520.48 253.75 538.43 254.09C556.38 254.42 573.88 233.35 582.83 219.93C591.79 206.51 598.26 170.79 598.91 163.42C604.94 172.87 608.65 199.82 607.56 227.56C606.48 255.3 603.7 267.56 597.67 284.36C591.64 301.17 589.71 298.56 589.71 298.56C589.71 298.56 574.2 291.06 564.42 291.9C554.64 292.73 540.78 300.53 540.07 312.11C539.35 323.69 545.75 341.65 573.87 338.82C601.99 335.98 624.23 296.89 640 266.05C640 266.05 639.99 297.6 627.81 335.09C615.62 372.58 595.23 412.38 558.29 455.53C529.69 489 474.17 530.86 466.92 537.78C456.66 534.34 394.66 517.51 357.95 499.38C321.25 481.26 308.34 471.85 286.08 448.89C263.83 425.94 254.15 404.52 253.78 369.64C253.41 334.75 265.37 308.8 291.52 289.86C317.66 270.91 361.86 267.69 381.66 291.95C401.47 316.22 396.82 340.92 390.85 353.14C384.88 365.35 366.5 378.13 366.5 378.13C376.33 356.58 371.98 326.88 336.93 329.86C301.89 332.85 298.57 366.73 307.3 388.36C315.98 409.88 371.65 435.4 414.52 402.07C457.39 368.75 459.3 316.55 438.17 277.17C417.04 237.8 374.5 212.99 330.29 220.67C286.08 228.34 238.85 263.78 222.87 295.52C206.89 327.26 200 341.16 202.16 381.23C204.32 421.3 238.17 483.68 271.86 511.27C305.56 538.86 323.82 555.14 356.43 567.83C389.04 580.53 391.34 579.81 391.34 579.81C352.87 625.8 276.7 639.65 251.5 639.95C226.29 640.25 205.29 639.38 180.58 633.12C155.54 626.78 139.82 619.81 125.71 607.87C111.59 595.92 102.89 578.2 102.89 578.2C102.89 578.2 118.55 594.93 136.78 602.08C155.02 609.24 183.62 616.76 213.29 603.74C242.95 590.72 256.28 552.74 224.21 523.98C208.34 512.46 190.71 508.68 172.73 515.7C154.75 522.71 145.32 547.06 162.58 571.68C156.34 568.12 155.32 568.45 143.89 555.6C132.3 541.95 121.33 517.66 121.33 502.61C121.33 487.57 124.48 484.14 124.48 484.14C124.48 484.14 153.54 502.92 166.68 476.03C179.81 449.13 147.21 432.53 131.84 436.42C116.46 440.31 111.06 448.99 102.93 464.43C94.8 479.87 91.37 500.18 91.58 519.6C88.36 514.25 86.01 507.09 82.53 493.66C79.05 480.23 78.38 468.57 77.96 457.48C77.53 446.39 77.77 440.54 79.6 421.8C81.43 403.07 83.96 402.53 83.96 402.53C95.29 413.12 108.29 410.85 120.04 407.99C131.8 405.13 141.34 393.65 140.25 379.85C139.16 366.05 129.64 353.53 103.4 354.23C77.16 354.92 57.46 387.3 47.29 411.47C45.62 405.41 46.13 375.06 55.33 350.77C64.53 326.47 83.15 302.46 88.76 298.54C90.08 303.17 89.59 302.73 97.08 310.66C104.58 318.58 121.58 322.42 132.5 316.97C143.41 311.52 153.62 295.54 147.2 283.65C140.79 271.76 128.85 261.9 111.32 262.18C93.79 262.46 70.91 273.1 54.29 289.39C37.68 305.68 34 309.76 34 309.76C34 309.76 41.54 275.8 58.73 254.61C75.91 233.43 91.53 218.92 109.07 210.62C126.61 202.33 141.86 199.02 141.86 199.02C141.86 199.02 133.2 227.63 145.9 234.31C158.6 241 169.2 240.4 181.87 234.9C194.54 229.4 196.97 211.15 190.34 197.3C183.72 183.46 159.19 176.34 137.55 172.08C115.92 167.83 99.07 169.3 80.52 173.11C61.97 176.93 61.35 179.26 61.35 179.26C61.35 179.26 82.82 156.11 114.14 141.29C146.07 126.17 159.92 125.45 188.2 125.31C216.49 125.16 226.91 130.82 226.91 130.82C226.91 131.36 222.02 137.32 218.77 146.13C215.53 154.93 217.37 165.33 230.6 174.14C243.83 182.94 270.78 176.44 275.93 160.26C281.07 144.07 275.57 125.05 266.66 106.94C255.34 86.41 232.49 76.01 216.95 70.44C201.4 64.86 185.4 63.51 167.45 61.11C167.45 61.11 220.07 50.57 255.85 54.25C291.63 57.93 303.97 61.31 323.75 72.76C343.52 84.21 350.62 96.14 350.62 96.14C350.62 96.14 339.04 94.98 326.4 102.49C313.76 110.01 310.41 130.19 320.44 141.91C330.47 153.63 358.97 157.18 380.52 131.57C402.06 105.97 398.97 58.39 379.33 36.85C359.7 15.31 348.36 5.25 340.59 0C340.59 0 346.36 -0.52 374.49 12.25C374.49 12.25 374.49 12.25 374.49 12.25C422.08 40.85 451.02 62.88 461.3 78.33Z" id="b5a8Ymk7H8"></path></defs><g><g><g><use xlink:href="#b5a8Ymk7H8" opacity="1" fill="#a40645" fill-opacity="1"></use><g><use xlink:href="#b5a8Ymk7H8" opacity="1" fill-opacity="0" stroke="#000000" stroke-width="1" stroke-opacity="0"></use></g></g></g></g></svg>